<?xml version="1.0"?>
<svg width="640" height="480" xmlns="http://www.w3.org/2000/svg" xmlns:svg="http://www.w3.org/2000/svg">
 <!-- Created with SVG-edit - https://github.com/SVG-Edit/svgedit-->
 <g class="layer">
  <title>Layer 1</title>
  <rect fill="#000000" height="216" id="svg_2" stroke="#000000" width="11" x="42" y="33"/>
  <rect fill="#000000" height="12" id="svg_1" stroke="#000000" width="131" x="22" y="239"/>
  <rect fill="#0a0909" height="8" id="svg_3" stroke="#000000" width="109" x="33" y="27"/>
  <rect fill="#0a0909" height="8.25" id="svg_4" stroke="#000000" transform="rotate(-35 71.7851 48.5509)" width="57.04" x="43.27" y="44.43"/>
  <rect fill="#000000" height="30" id="svg_5" stroke="#000000" width="6" x="125" y="34"/>
  <ellipse cx="127.5" cy="83" fill="#ffffff" fill-opacity="0.01" id="svg_6" rx="20.5" ry="18" stroke="#000000"/>
  <rect fill="#000000" height="69" id="svg_7" stroke="#000000" width="9" x="123" y="102"/>
  <rect fill="#000000" height="1" id="svg_8" stroke="#000000" width="0" x="189" y="111"/>
  <rect fill="#000000" height="8.63" id="svg_9" stroke="#000000" transform="rotate(-25 145.485 118.541)" width="35.93" x="127.52" y="114.23"/>
  <rect fill="#000000" height="8.63" id="svg_10" stroke="#000000" transform="rotate(25 110 118)" width="35.93" x="91.53" y="113.68"/>
  <rect fill="#000000" height="8.23" id="svg_11" stroke="#000000" transform="rotate(50 142.236 180.185)" width="42.46" x="121.01" y="176.07"/>
  <rect fill="#000000" height="8.23" id="svg_12" stroke="#000000" transform="rotate(-50 112 179)" width="42.46" x="90.27" y="174.88"/>
 </g>
</svg>